<svg width="76" height="76" viewBox="0 0 76 76" fill="none" xmlns="http://www.w3.org/2000/svg">
<g filter="url(#filter0_d_11471_117667)">
<path d="M38.2745 56.999C53.5869 56.999 66.0001 44.6503 66.0001 29.4174C66.0001 14.1845 53.5869 1.83582 38.2745 1.83582C22.962 1.83582 10.5488 14.1845 10.5488 29.4174C10.5488 44.6503 22.962 56.999 38.2745 56.999Z" fill="#FDB319"/>
<path d="M37.5457 55.8051C52.7587 55.8051 65.0913 43.5366 65.0913 28.4026C65.0913 13.2685 52.7587 1 37.5457 1C22.3326 1 10 13.2685 10 28.4026C10 43.5366 22.3326 55.8051 37.5457 55.8051Z" fill="#FEE250"/>
</g>
<g filter="url(#filter1_d_11471_117667)">
<path d="M37.5729 49.5485C49.3351 49.5485 58.8703 40.0628 58.8703 28.3617C58.8703 16.6605 49.3351 7.17487 37.5729 7.17487C25.8106 7.17487 16.2754 16.6605 16.2754 28.3617C16.2754 40.0628 25.8106 49.5485 37.5729 49.5485Z" fill="#FDC51C"/>
</g>
<path d="M24.0299 44.7135C19.5139 39.5876 18.4439 36.2034 18.0683 31.4053C17.1547 19.7494 26.795 8.87086 38.5471 8.87086C44.1419 8.87086 50.481 11.5126 55.3022 16.6172C51.4543 10.96 45.0672 7.17487 37.6834 7.17487C25.8609 7.17487 16.2764 16.7096 16.2764 28.4707C16.2764 35.0338 19.3379 40.8078 24.0309 44.7135H24.0299Z" fill="#FFB006"/>
<path d="M35.4582 19.6608V17.4433C35.4778 16.227 36.4168 15.6188 38.2742 15.6188C40.1317 15.6188 41.0902 16.2416 41.0902 17.4871V19.5732C42.4204 19.8262 43.5932 20.2933 44.6104 20.9744C46.0189 21.9183 46.7222 22.9292 46.7222 24.0093C46.7222 25.6635 45.6414 26.4896 43.4807 26.4896C42.6884 26.4896 41.8619 26.1685 41.0022 25.5263C40.1414 24.8841 38.9198 24.563 37.3352 24.563C36.0832 24.5921 35.4572 24.9765 35.4572 25.716C35.4572 26.1052 36.3913 26.4458 38.2586 26.7377C38.5227 26.8155 39.1046 26.9663 40.0045 27.1901C40.8359 27.3945 41.5059 27.5696 42.0135 27.7156C42.933 27.9978 43.6069 28.2576 44.0373 28.496C44.4676 28.7343 44.8002 28.9406 45.0349 29.1158C45.2697 29.2909 45.5044 29.505 45.7392 29.758C46.4239 30.7213 46.7662 31.8403 46.7662 33.114C46.7662 35.1184 46.0277 36.7278 44.5518 37.9441C43.6225 38.7128 42.4693 39.2577 41.0902 39.5788V41.738C41.0902 42.9834 40.1512 43.6062 38.2742 43.6062C36.3972 43.6062 35.4778 42.998 35.4582 41.7817V39.6664C34.128 39.3939 32.9552 38.8928 31.938 38.163C30.5295 37.1511 29.8262 36.0623 29.8262 34.8946C29.8262 33.1247 30.9071 32.2392 33.0677 32.2392C33.86 32.2392 34.6855 32.5846 35.5463 33.2755C36.407 33.9566 37.6287 34.2972 39.2132 34.2972C40.4652 34.2972 41.0912 33.9031 41.0912 33.1149C41.0912 32.6965 40.1571 32.3122 38.2899 31.9619C38.0258 31.8841 37.4438 31.7235 36.5439 31.4802C35.7125 31.2662 35.0425 31.0764 34.5349 30.911C32.8134 30.3564 31.5673 29.6169 30.7946 28.6935C30.1197 27.8372 29.7822 26.8311 29.7822 25.6732C29.7822 23.805 30.5207 22.3075 31.9967 21.1787C32.9259 20.4587 34.0791 19.9527 35.4582 19.6608Z" fill="#FFB006"/>
<path d="M34.8274 18.7851V16.5675C34.8469 15.3512 35.7859 14.7431 37.6434 14.7431C39.5008 14.7431 40.4594 15.3658 40.4594 16.6113V18.6975C41.7896 18.9505 42.9623 19.4176 43.9796 20.0987C45.3881 21.0425 46.0913 22.0535 46.0913 23.1336C46.0913 24.7877 45.0105 25.6138 42.8499 25.6138C42.0576 25.6138 41.2311 25.2927 40.3713 24.6505C39.5106 24.0083 38.2889 23.6872 36.7044 23.6872C35.4524 23.7164 34.8264 24.1008 34.8264 24.8403C34.8264 25.2295 35.7605 25.57 37.6277 25.862C37.8918 25.9398 38.4738 26.0906 39.3736 26.3144C40.205 26.5187 40.8751 26.6939 41.3827 26.8398C42.3021 27.122 42.976 27.3818 43.4064 27.6202C43.8368 27.8586 44.1693 28.0649 44.4041 28.24C44.6388 28.4152 44.8736 28.6293 45.1083 28.8822C45.793 29.8455 46.1354 30.9645 46.1354 32.2382C46.1354 34.2427 45.3969 35.8521 43.9209 37.0684C42.9917 37.8371 41.8385 38.382 40.4594 38.7031V40.8622C40.4594 42.1077 39.5204 42.7305 37.6434 42.7305C35.7664 42.7305 34.8469 42.1223 34.8274 40.906V38.7906C33.4971 38.5182 32.3244 38.0171 31.3071 37.2873C29.8986 36.2753 29.1954 35.1865 29.1954 34.0189C29.1954 32.2489 30.2762 31.3635 32.4369 31.3635C33.2291 31.3635 34.0547 31.7089 34.9154 32.3998C35.7761 33.0809 36.9978 33.4214 38.5823 33.4214C39.8343 33.4214 40.4603 33.0274 40.4603 32.2392C40.4603 31.8208 39.5262 31.4365 37.659 31.0862C37.3949 31.0083 36.8129 30.8478 35.9131 30.6045C35.0817 30.3904 34.4117 30.2007 33.904 30.0353C32.1825 29.4807 30.9364 28.7412 30.1637 27.8177C29.4888 26.9615 29.1514 25.9554 29.1514 24.7975C29.1514 22.9292 29.8898 21.4317 31.3658 20.303C32.295 19.583 33.4482 19.077 34.8274 18.7851Z" fill="#FDE775"/>
<g filter="url(#filter2_d_11471_117667)">
<rect x="3.5" y="39" width="69" height="32" rx="16" fill="#E56501" shape-rendering="crispEdges"/>
<path d="M11.8759 48.41V47.94L12.7759 47.9H15.3459V48.41H11.8759ZM12.7559 52V44.67H14.5859C16.8459 44.67 18.0459 45.98 18.0459 48.31C18.0459 50.64 16.8459 52 14.6259 52H12.7559ZM13.6759 51.24H14.5059C16.2359 51.24 17.0859 50.17 17.0859 48.31C17.0859 46.45 16.2359 45.43 14.5059 45.43H13.6759V51.24ZM20.795 52.14C19.885 52.14 19.205 51.57 19.205 50.59C19.205 49.41 20.225 48.82 22.535 48.56C22.535 47.86 22.315 47.19 21.425 47.19C20.785 47.19 20.215 47.49 19.795 47.78L19.435 47.14C19.935 46.82 20.695 46.44 21.565 46.44C22.895 46.44 23.455 47.32 23.455 48.67V52H22.705L22.625 51.36H22.585C22.075 51.79 21.465 52.14 20.795 52.14ZM21.045 51.4C21.575 51.4 22.015 51.15 22.535 50.68V49.17C20.705 49.38 20.095 49.83 20.095 50.53C20.095 51.15 20.515 51.4 21.045 51.4ZM21.615 45.63C20.415 45.63 19.925 44.76 19.855 43.93L20.435 43.84C20.515 44.42 20.885 45.01 21.615 45.01C22.335 45.01 22.695 44.42 22.785 43.84L23.355 43.93C23.285 44.76 22.805 45.63 21.615 45.63ZM25.1798 52V46.57H25.9198L26.0098 47.36H26.0398C26.5498 46.85 27.1098 46.44 27.8598 46.44C28.9998 46.44 29.5198 47.18 29.5198 48.56V52H28.5998V48.68C28.5998 47.66 28.2898 47.23 27.5698 47.23C27.0198 47.23 26.6298 47.52 26.0898 48.06V52H25.1798ZM33.1133 54.5C31.7833 54.5 30.8633 53.98 30.8633 53.05C30.8633 52.59 31.1633 52.14 31.6633 51.82V51.78C31.3833 51.6 31.1733 51.31 31.1733 50.88C31.1733 50.43 31.4933 50.08 31.7833 49.88V49.84C31.4233 49.55 31.0633 49.03 31.0633 48.38C31.0633 47.18 32.0033 46.44 33.1033 46.44C33.4133 46.44 33.6833 46.5 33.8733 46.57H35.7633V47.28H34.6533C34.9133 47.53 35.0933 47.93 35.0933 48.4C35.0933 49.56 34.2133 50.28 33.1033 50.28C32.8433 50.28 32.5433 50.22 32.2933 50.1C32.1033 50.26 31.9433 50.45 31.9433 50.74C31.9433 51.09 32.1733 51.34 32.9033 51.34H33.9633C35.2233 51.34 35.8533 51.73 35.8533 52.63C35.8533 53.64 34.7833 54.5 33.1133 54.5ZM33.1033 49.67C33.7333 49.67 34.2633 49.16 34.2633 48.38C34.2633 47.58 33.7433 47.1 33.1033 47.1C32.4633 47.1 31.9433 47.57 31.9433 48.38C31.9433 49.16 32.4733 49.67 33.1033 49.67ZM33.2333 53.88C34.2833 53.88 34.9633 53.33 34.9633 52.77C34.9633 52.26 34.5733 52.09 33.8633 52.09H32.9233C32.7133 52.09 32.4633 52.07 32.2133 52C31.8233 52.28 31.6633 52.61 31.6633 52.92C31.6633 53.51 32.2533 53.88 33.2333 53.88ZM39.1641 52V46.57H39.9041L39.9941 47.36H40.0241C40.5341 46.85 41.0941 46.44 41.8441 46.44C42.9841 46.44 43.5041 47.18 43.5041 48.56V52H42.5841V48.68C42.5841 47.66 42.2741 47.23 41.5541 47.23C41.0041 47.23 40.6141 47.52 40.0741 48.06V52H39.1641ZM45.2677 52V44.05H46.1777V46.22L46.1477 47.34C46.6477 46.85 47.1977 46.44 47.9477 46.44C49.0877 46.44 49.6077 47.18 49.6077 48.56V52H48.6877V48.68C48.6877 47.66 48.3777 47.23 47.6577 47.23C47.1077 47.23 46.7177 47.52 46.1777 48.06V52H45.2677ZM52.5919 52.14C51.6819 52.14 51.0019 51.57 51.0019 50.59C51.0019 49.41 52.0219 48.82 54.3319 48.56C54.3319 47.86 54.1119 47.19 53.2219 47.19C52.5819 47.19 52.0119 47.49 51.5919 47.78L51.2319 47.14C51.7319 46.82 52.4919 46.44 53.3619 46.44C54.6919 46.44 55.2519 47.32 55.2519 48.67V52H54.5019L54.4219 51.36H54.3819C53.8719 51.79 53.2619 52.14 52.5919 52.14ZM52.8419 51.4C53.3719 51.4 53.8119 51.15 54.3319 50.68V49.17C52.5019 49.38 51.8919 49.83 51.8919 50.53C51.8919 51.15 52.3119 51.4 52.8419 51.4ZM51.6719 45.29L52.9519 43.74H53.8519L55.1319 45.29L54.7419 45.66L53.4319 44.4H53.3919L52.0719 45.66L51.6719 45.29ZM53.1919 54.31C52.8419 54.31 52.5819 54.08 52.5819 53.7C52.5819 53.34 52.8419 53.11 53.1919 53.11C53.5519 53.11 53.8019 53.34 53.8019 53.7C53.8019 54.08 53.5519 54.31 53.1919 54.31ZM56.9766 54.29V46.57H57.7166L57.8066 47.2H57.8366C58.3266 46.79 58.9266 46.44 59.5566 46.44C60.9666 46.44 61.7166 47.53 61.7166 49.21C61.7166 51.06 60.6066 52.14 59.3566 52.14C58.8666 52.14 58.3566 51.91 57.8666 51.51L57.8866 52.46V54.29H56.9766ZM59.2166 51.37C60.1066 51.37 60.7766 50.56 60.7766 49.22C60.7766 48.01 60.3666 47.2 59.3366 47.2C58.8766 47.2 58.4166 47.46 57.8866 47.95V50.81C58.3766 51.22 58.8566 51.37 59.2166 51.37ZM21.8147 66.14C20.4547 66.14 19.5747 65.16 19.5747 63.51C19.5747 61.91 20.6947 60.88 21.9347 60.88C22.5647 60.88 22.9847 61.12 23.4547 61.5L23.4147 60.58V58.05H24.3247V66H23.5647L23.4947 65.39H23.4547C23.0447 65.8 22.4747 66.14 21.8147 66.14ZM22.0147 65.37C22.5247 65.37 22.9647 65.12 23.4147 64.63V62.22C22.9547 61.8 22.5347 61.65 22.0847 61.65C21.2147 61.65 20.5247 62.43 20.5247 63.5C20.5247 64.65 21.0647 65.37 22.0147 65.37ZM21.6047 59.62V59.09H25.1447V59.56L24.2847 59.62H21.6047ZM28.3659 66.14C26.9159 66.14 25.7659 65.08 25.7659 63.3C25.7659 61.53 26.9559 60.44 28.2059 60.44C29.5859 60.44 30.3659 61.43 30.3659 62.99C30.3659 63.18 30.3559 63.37 30.3259 63.51H26.6659C26.7359 64.66 27.4359 65.41 28.4759 65.41C28.9959 65.41 29.4259 65.24 29.8259 64.97L30.1559 65.58C29.6759 65.89 29.1059 66.14 28.3659 66.14ZM26.6559 62.85H29.5659C29.5659 61.76 29.0759 61.17 28.2159 61.17C27.4559 61.17 26.7759 61.78 26.6559 62.85ZM27.0159 59.63L26.7059 59.26L27.8259 58.24H28.5659L29.6859 59.26L29.3759 59.63L28.2159 58.82H28.1759L27.0159 59.63ZM29.4859 58.9L29.3859 58.52C29.6659 58.44 29.8659 58.32 29.8659 58.08C29.8659 57.79 29.6459 57.65 29.0959 57.61L29.1759 57.16C30.0359 57.19 30.5159 57.45 30.5159 57.98C30.5159 58.58 30.0159 58.79 29.4859 58.9ZM33.9493 66V60.57H34.6893L34.7793 61.36H34.8093C35.3193 60.85 35.8793 60.44 36.6293 60.44C37.7693 60.44 38.2893 61.18 38.2893 62.56V66H37.3693V62.68C37.3693 61.66 37.0593 61.23 36.3393 61.23C35.7893 61.23 35.3993 61.52 34.8593 62.06V66H33.9493ZM40.0528 66V58.05H40.9628V60.22L40.9328 61.34C41.4328 60.85 41.9828 60.44 42.7328 60.44C43.8728 60.44 44.3928 61.18 44.3928 62.56V66H43.4728V62.68C43.4728 61.66 43.1628 61.23 42.4428 61.23C41.8928 61.23 41.5028 61.52 40.9628 62.06V66H40.0528ZM47.377 66.14C46.467 66.14 45.787 65.57 45.787 64.59C45.787 63.41 46.807 62.82 49.117 62.56C49.117 61.86 48.897 61.19 48.007 61.19C47.367 61.19 46.797 61.49 46.377 61.78L46.017 61.14C46.517 60.82 47.277 60.44 48.147 60.44C49.477 60.44 50.037 61.32 50.037 62.67V66H49.287L49.207 65.36H49.167C48.657 65.79 48.047 66.14 47.377 66.14ZM47.627 65.4C48.157 65.4 48.597 65.15 49.117 64.68V63.17C47.287 63.38 46.677 63.83 46.677 64.53C46.677 65.15 47.097 65.4 47.627 65.4ZM46.457 59.29L47.737 57.74H48.637L49.917 59.29L49.527 59.66L48.217 58.4H48.177L46.857 59.66L46.457 59.29ZM47.977 68.31C47.627 68.31 47.367 68.08 47.367 67.7C47.367 67.34 47.627 67.11 47.977 67.11C48.337 67.11 48.587 67.34 48.587 67.7C48.587 68.08 48.337 68.31 47.977 68.31ZM51.7618 66V60.57H52.5018L52.5918 61.36H52.6218C53.1318 60.85 53.6918 60.44 54.4418 60.44C55.5818 60.44 56.1018 61.18 56.1018 62.56V66H55.1818V62.68C55.1818 61.66 54.8718 61.23 54.1518 61.23C53.6018 61.23 53.2118 61.52 52.6718 62.06V66H51.7618Z" fill="white"/>
</g>
<defs>
<filter id="filter0_d_11471_117667" x="7" y="0" width="62" height="61.999" filterUnits="userSpaceOnUse" color-interpolation-filters="sRGB">
<feFlood flood-opacity="0" result="BackgroundImageFix"/>
<feColorMatrix in="SourceAlpha" type="matrix" values="0 0 0 0 0 0 0 0 0 0 0 0 0 0 0 0 0 0 127 0" result="hardAlpha"/>
<feOffset dy="2"/>
<feGaussianBlur stdDeviation="1.5"/>
<feComposite in2="hardAlpha" operator="out"/>
<feColorMatrix type="matrix" values="0 0 0 0 0.00392157 0 0 0 0 0.0509804 0 0 0 0 0.341176 0 0 0 0.2 0"/>
<feBlend mode="normal" in2="BackgroundImageFix" result="effect1_dropShadow_11471_117667"/>
<feBlend mode="normal" in="SourceGraphic" in2="effect1_dropShadow_11471_117667" result="shape"/>
</filter>
<filter id="filter1_d_11471_117667" x="10.6154" y="1.51487" width="53.9147" height="53.6937" filterUnits="userSpaceOnUse" color-interpolation-filters="sRGB">
<feFlood flood-opacity="0" result="BackgroundImageFix"/>
<feColorMatrix in="SourceAlpha" type="matrix" values="0 0 0 0 0 0 0 0 0 0 0 0 0 0 0 0 0 0 127 0" result="hardAlpha"/>
<feOffset/>
<feGaussianBlur stdDeviation="2.83"/>
<feColorMatrix type="matrix" values="0 0 0 0 1 0 0 0 0 1 0 0 0 0 1 0 0 0 1 0"/>
<feBlend mode="normal" in2="BackgroundImageFix" result="effect1_dropShadow_11471_117667"/>
<feBlend mode="normal" in="SourceGraphic" in2="effect1_dropShadow_11471_117667" result="shape"/>
</filter>
<filter id="filter2_d_11471_117667" x="0.5" y="38" width="75" height="38" filterUnits="userSpaceOnUse" color-interpolation-filters="sRGB">
<feFlood flood-opacity="0" result="BackgroundImageFix"/>
<feColorMatrix in="SourceAlpha" type="matrix" values="0 0 0 0 0 0 0 0 0 0 0 0 0 0 0 0 0 0 127 0" result="hardAlpha"/>
<feOffset dy="2"/>
<feGaussianBlur stdDeviation="1.5"/>
<feComposite in2="hardAlpha" operator="out"/>
<feColorMatrix type="matrix" values="0 0 0 0 0.00392157 0 0 0 0 0.0509804 0 0 0 0 0.341176 0 0 0 0.2 0"/>
<feBlend mode="normal" in2="BackgroundImageFix" result="effect1_dropShadow_11471_117667"/>
<feBlend mode="normal" in="SourceGraphic" in2="effect1_dropShadow_11471_117667" result="shape"/>
</filter>
</defs>
</svg>
